P3
30 30
255
204 204 255
204 204 255
204 204 255
204 204 255
204 204 255
204 204 255
204 204 255
204 204 255
204 204 255
204 204 255
204 204 255
204 204 255
204 204 255
204 204 255
204 204 255
204 204 255
204 204 255
204 204 255
204 204 255
204 204 255
204 204 255
204 204 255
204 204 255
204 204 255
204 204 255
204 204 255
204 204 255
204 204 255
204 204 255
204 204 255

30 80 116
204 204 255
204 204 255
204 204 255
204 204 255
204 204 255
204 204 255
204 204 255
204 204 255
204 204 255
204 204 255
204 204 255
204 204 255
204 204 255
204 204 255
204 204 255
204 204 255
204 204 255
204 204 255
204 204 255
204 204 255
204 204 255
204 204 255
204 204 255
204 204 255
204 204 255
204 204 255
204 204 255
204 204 255
204 204 255

36 94 136
42 97 134
46 95 127
204 204 255
204 204 255
204 204 255
204 204 255
204 204 255
204 204 255
204 204 255
204 204 255
204 204 255
204 204 255
204 204 255
204 204 255
204 204 255
204 204 255
204 204 255
204 204 255
204 204 255
204 204 255
204 204 255
204 204 255
204 204 255
204 204 255
204 204 255
204 204 255
204 204 255
204 204 255
204 204 255

45 103 143
53 109 144
61 114 143
68 115 139
204 204 255
204 204 255
204 204 255
204 204 255
204 204 255
204 204 255
204 204 255
204 204 255
204 204 255
204 204 255
204 204 255
204 204 255
204 204 255
204 204 255
204 204 255
204 204 255
204 204 255
204 204 255
204 204 255
204 204 255
204 204 255
204 204 255
204 204 255
204 204 255
204 204 255
204 204 255

52 110 146
62 116 148
70 122 149
79 127 148
86 130 145
88 124 132
204 204 255
204 204 255
204 204 255
204 204 255
204 204 255
204 204 255
204 204 255
204 204 255
204 204 255
204 204 255
204 204 255
204 204 255
204 204 255
204 204 255
204 204 255
204 204 255
204 204 255
204 204 255
204 204 255
204 204 255
204 204 255
204 204 255
204 204 255
204 204 255

59 114 147
68 121 150
78 128 151
87 134 152
95 139 151
102 141 147
105 136 134
204 204 255
204 204 255
204 204 255
204 204 255
204 204 255
204 204 255
204 204 255
204 204 255
204 204 255
204 204 255
204 204 255
204 204 255
204 204 255
204 204 255
204 204 255
204 204 255
204 204 255
204 204 255
204 204 255
204 204 255
204 204 255
204 204 255
204 204 255

64 118 147
74 125 150
84 132 152
93 139 154
102 145 154
111 149 152
118 151 147
28 74 108
204 204 255
204 204 255
204 204 255
204 204 255
204 204 255
204 204 255
204 204 255
204 204 255
204 204 255
204 204 255
204 204 255
204 204 255
204 204 255
204 204 255
204 204 255
204 204 255
204 204 255
204 204 255
204 204 255
204 204 255
204 204 255
204 204 255

69 120 146
79 128 149
89 135 152
98 142 154
108 149 154
117 154 154
125 158 151
32 85 123
204 204 255
204 204 255
204 204 255
204 204 255
204 204 255
204 204 255
14 37 54
31 82 119
63 117 147
204 204 255
204 204 255
204 204 255
204 204 255
204 204 255
204 204 255
204 204 255
204 204 255
204 204 255
204 204 255
204 204 255
204 204 255
204 204 255

73 122 145
83 130 148
93 138 151
103 145 153
113 151 154
122 157 154
132 162 152
140 165 148
29 77 112
204 204 255
204 204 255
204 204 255
204 204 255
204 204 255
17 45 65
21 56 82
99 126 122
186 176 114
204 204 255
204 204 255
204 204 255
204 204 255
204 204 255
204 204 255
204 204 255
204 204 255
204 204 255
204 204 255
204 204 255
204 204 255

77 123 143
87 131 146
97 139 149
107 146 151
117 153 152
35 92 133
34 90 130
146 170 149
30 80 116
204 204 255
204 204 255
204 204 255
204 204 255
204 204 255
6 15 21
35 54 60
137 143 108
204 204 255
204 204 255
204 204 255
204 204 255
204 204 255
204 204 255
204 204 255
204 204 255
204 204 255
204 204 255
204 204 255
204 204 255
204 204 255

81 124 140
91 132 143
101 140 146
111 148 148
121 155 150
34 90 130
33 88 127
32 85 123
30 80 116
26 69 100
204 204 255
204 204 255
204 204 255
204 204 255
204 204 255
32 85 124
86 128 141
204 204 255
204 204 255
204 204 255
204 204 255
204 204 255
204 204 255
204 204 255
204 204 255
204 204 255
204 204 255
204 204 255
204 204 255
204 204 255

84 124 137
94 133 140
105 141 143
115 148 145
125 156 147
33 87 126
32 85 124
31 83 120
166 183 150
27 71 102
204 204 255
204 204 255
204 204 255
24 63 91
30 78 113
33 88 128
36 95 138
37 98 142
65 115 142
204 204 255
204 204 255
204 204 255
204 204 255
204 204 255
204 204 255
204 204 255
204 204 255
204 204 255
204 204 255
204 204 255

87 124 133
97 133 136
108 141 139
118 148 142
129 156 143
139 163 145
31 83 120
30 80 116
39 102 148
29 76 111
204 204 255
204 204 255
26 70 101
24 64 93
29 77 111
33 87 125
35 93 135
45 104 143
79 129 150
112 147 147
204 204 255
204 204 255
204 204 255
204 204 255
204 204 255
204 204 255
204 204 255
204 204 255
204 204 255
204 204 255

90 124 129
100 132 132
111 140 135
121 148 138
132 156 139
142 163 141
153 169 141
29 77 112
35 92 134
31 82 119
18 47 68
15 40 58
26 68 99
22 59 86
27 71 103
31 80 117
33 87 127
56 107 137
90 134 147
124 156 149
204 204 255
204 204 255
204 204 255
204 204 255
204 204 255
204 204 255
204 204 255
204 204 255
204 204 255
204 204 255

92 123 124
103 131 128
113 140 131
124 147 133
135 155 135
145 162 136
156 169 137
166 175 136
32 85 122
29 76 109
19 49 72
14 37 53
23 59 86
19 51 74
68 102 114
30 80 116
52 107 142
66 108 127
100 135 137
135 159 141
175 191 155
24 63 91
32 83 121
60 114 147
204 204 255
204 204 255
204 204 255
204 204 255
204 204 255
204 204 255

95 122 120
105 130 123
116 139 126
127 147 128
137 154 130
148 161 131
159 171 135
169 174 131
183 189 142
25 67 96
0 0 0
9 23 34
18 46 67
15 40 58
60 78 77
21 55 79
76 107 114
170 171 124
109 134 124
144 158 128
203 200 139
15 39 56
22 57 83
89 118 119
204 204 255
204 204 255
204 204 255
204 204 255
204 204 255
204 204 255

97 121 114
107 129 118
118 137 121
129 145 123
140 153 125
150 160 126
161 167 126
172 173 125
184 182 127
194 186 124
0 0 0
6 16 23
72 74 55
0 0 0
65 55 28
5 13 19
97 92 60
83 103 97
118 130 107
153 154 111
188 171 101
68 53 20
12 17 18
116 103 59
204 204 255
204 204 255
204 204 255
204 204 255
204 204 255
204 204 255

99 119 109
109 127 112
120 136 115
131 143 117
142 151 119
153 158 120
164 165 120
174 171 119
185 176 116
196 182 114
0 0 0
5 12 17
69 60 32
0 0 0
0 0 0
8 6 2
41 30 9
91 97 77
126 124 86
162 147 88
204 204 255
204 204 255
204 204 255
204 204 255
204 204 255
204 204 255
204 204 255
204 204 255
204 204 255
204 204 255

101 117 103
111 125 106
122 134 109
133 141 111
144 149 113
155 156 114
166 163 113
176 169 112
189 180 118
196 176 101
204 204 255
204 204 255
2 5 7
0 0 0
0 0 0
22 16 5
62 60 40
98 88 52
133 114 59
169 134 55
204 204 255
204 204 255
204 204 255
204 204 255
204 204 255
204 204 255
204 204 255
204 204 255
204 204 255
204 204 255

102 115 97
113 123 100
124 131 102
135 139 104
146 147 106
157 154 107
168 160 106
178 166 104
189 170 100
198 171 90
204 204 255
204 204 255
204 204 255
0 0 0
2 2 0
35 26 8
69 51 15
105 77 22
142 105 30
204 204 255
204 204 255
204 204 255
204 204 255
204 204 255
204 204 255
204 204 255
204 204 255
204 204 255
204 204 255
204 204 255

103 112 90
114 120 93
125 128 95
136 136 97
147 144 98
158 151 99
169 157 98
180 163 96
190 166 90
9 25 36
204 204 255
204 204 255
204 204 255
204 204 255
204 204 255
51 37 11
108 80 23
204 204 255
204 204 255
204 204 255
204 204 255
204 204 255
204 204 255
204 204 255
204 204 255
204 204 255
204 204 255
204 204 255
204 204 255
204 204 255

105 109 82
115 117 85
126 125 88
137 133 89
148 140 90
159 147 90
170 153 89
181 158 86
191 160 78
204 204 255
204 204 255
204 204 255
204 204 255
204 204 255
65 48 14
45 93 124
116 156 159
204 204 255
204 204 255
204 204 255
204 204 255
204 204 255
204 204 255
204 204 255
204 204 255
204 204 255
204 204 255
204 204 255
204 204 255
204 204 255

105 105 74
116 113 77
127 121 79
138 129 81
149 136 81
160 143 81
171 148 79
181 152 74
190 151 62
204 204 255
204 204 255
204 204 255
204 204 255
204 204 255
74 72 49
22 59 86
97 125 123
195 179 108
204 204 255
204 204 255
204 204 255
204 204 255
204 204 255
204 204 255
204 204 255
204 204 255
204 204 255
204 204 255
204 204 255
204 204 255

106 101 66
117 109 68
128 117 70
139 124 71
150 131 72
161 137 70
171 142 67
181 144 59
204 204 255
204 204 255
204 204 255
204 204 255
204 204 255
204 204 255
0 0 0
7 15 19
113 102 60
204 204 255
204 204 255
204 204 255
204 204 255
204 204 255
204 204 255
204 204 255
204 204 255
204 204 255
204 204 255
204 204 255
204 204 255
204 204 255

106 96 57
117 104 59
128 112 60
139 119 61
150 125 60
161 131 58
170 134 52
177 130 38
204 204 255
204 204 255
204 204 255
204 204 255
204 204 255
204 204 255
204 204 255
204 204 255
204 204 255
204 204 255
204 204 255
204 204 255
204 204 255
204 204 255
204 204 255
204 204 255
204 204 255
204 204 255
204 204 255
204 204 255
204 204 255
204 204 255

106 90 46
117 98 48
128 106 49
139 112 49
149 118 47
159 121 42
168 124 36
204 204 255
204 204 255
204 204 255
204 204 255
204 204 255
204 204 255
204 204 255
204 204 255
204 204 255
204 204 255
204 204 255
204 204 255
204 204 255
204 204 255
204 204 255
204 204 255
204 204 255
204 204 255
204 204 255
204 204 255
204 204 255
204 204 255
204 204 255

105 84 34
116 91 36
127 98 36
137 104 34
148 109 31
158 116 34
204 204 255
204 204 255
204 204 255
204 204 255
204 204 255
204 204 255
204 204 255
204 204 255
204 204 255
204 204 255
204 204 255
204 204 255
204 204 255
204 204 255
204 204 255
204 204 255
204 204 255
204 204 255
204 204 255
204 204 255
204 204 255
204 204 255
204 204 255
204 204 255

104 76 22
115 85 24
126 93 27
137 101 29
204 204 255
204 204 255
204 204 255
204 204 255
204 204 255
204 204 255
204 204 255
204 204 255
204 204 255
204 204 255
204 204 255
204 204 255
204 204 255
204 204 255
204 204 255
204 204 255
204 204 255
204 204 255
204 204 255
204 204 255
204 204 255
204 204 255
204 204 255
204 204 255
204 204 255
204 204 255

105 77 22
116 85 25
126 93 27
204 204 255
204 204 255
204 204 255
204 204 255
204 204 255
204 204 255
204 204 255
204 204 255
204 204 255
204 204 255
204 204 255
204 204 255
204 204 255
204 204 255
204 204 255
204 204 255
204 204 255
204 204 255
204 204 255
204 204 255
204 204 255
204 204 255
204 204 255
204 204 255
204 204 255
204 204 255
204 204 255

102 75 22
204 204 255
204 204 255
204 204 255
204 204 255
204 204 255
204 204 255
204 204 255
204 204 255
204 204 255
204 204 255
204 204 255
204 204 255
204 204 255
204 204 255
204 204 255
204 204 255
204 204 255
204 204 255
204 204 255
204 204 255
204 204 255
204 204 255
204 204 255
204 204 255
204 204 255
204 204 255
204 204 255
204 204 255
204 204 255

